<?xml version="1.0" encoding="UTF-8"?>
<!DOCTYPE svg PUBLIC "-//W3C//DTD SVG 1.1//EN" "http://www.w3.org/Graphics/SVG/1.1/DTD/svg11.dtd">
<!-- Creator: CorelDRAW X8 -->
<svg xmlns="http://www.w3.org/2000/svg" xml:space="preserve" width="150.557mm" height="114.215mm" version="1.1" style="shape-rendering:geometricPrecision; text-rendering:geometricPrecision; image-rendering:optimizeQuality; fill-rule:evenodd; clip-rule:evenodd"
viewBox="0 0 14363 10896"
 xmlns:xlink="http://www.w3.org/1999/xlink">
 <defs>
  <style type="text/css">
   <![CDATA[
    .fil0 {fill:black}
   ]]>
  </style>
 </defs>
 <g id="Capa_x0020_1">
  <metadata id="CorelCorpID_0Corel-Layer"/>
  <g id="_1425506544">
   <g>
    <path class="fil0" d="M3514 2803c50,13 150,109 192,146l21 20c316,343 469,809 522,1271 10,88 24,195 24,291 0,72 -8,113 -8,186 -209,0 -324,-22 -506,-68 -313,-78 -638,-230 -881,-435l-140 -127c19,-28 31,-42 52,-69 81,-107 199,-269 267,-380 83,-137 423,-693 457,-835zm-865 1163c-72,-19 -258,-374 -258,-598 0,-136 10,-203 55,-316 40,-100 126,-210 218,-267 106,-67 240,-111 381,-111 102,0 272,32 339,64 -7,31 -23,57 -39,82 -84,139 -207,381 -308,549 -81,134 -192,325 -285,449l-103 148zm1769 501c-8,-97 -17,-201 -25,-299 -23,-282 -91,-532 -198,-787 -33,-80 -68,-142 -111,-212 -69,-117 -190,-278 -299,-363 -40,-31 -154,-122 -199,-132 9,-36 49,-106 68,-143 24,-50 47,-86 72,-137 13,-27 22,-44 35,-71 168,-330 462,-863 652,-1149l383 -473 115 -103 -76 190c-25,73 -45,133 -67,208 -123,430 -216,940 -254,1386 -24,292 -31,752 -31,1059 0,158 13,397 -6,535 -17,124 2,249 -41,436l-18 55zm-953 -1866c-270,-130 -588,-126 -846,27 -229,135 -390,403 -390,684 0,296 77,487 235,710 17,25 41,50 56,73 -7,26 -36,56 -54,75 -25,25 -35,43 -61,69 -47,46 -87,86 -133,133 -45,44 -86,83 -136,122 -156,121 -302,226 -489,303 -208,85 -593,161 -812,30 -39,-24 -64,-36 -99,-63 -64,-48 -116,-102 -164,-167 -44,-60 -87,-138 -113,-210 -10,-28 -36,-99 -39,-130l103 -35c99,-39 196,-86 283,-145 64,-43 97,-78 145,-137 216,-262 -42,-650 -342,-431 -22,16 -43,38 -68,45 -8,-101 -115,-242 -250,-242 -191,0 -291,149 -291,331 0,158 110,345 182,439 56,73 54,146 80,236 64,226 173,442 361,584 477,359 1173,57 1563,-260 30,-24 50,-42 80,-66l155 -136c68,-57 156,-182 212,-224l151 132c161,130 336,234 532,316 138,57 273,105 422,144 134,34 333,71 502,71 -43,185 101,185 251,185 229,0 703,-88 826,-273 22,-33 39,-92 73,-112 39,-24 80,-38 122,-63 141,-85 301,-205 400,-335l310 -386c7,-10 14,-18 22,-26 10,44 26,253 46,357 32,168 74,315 159,455 30,51 51,79 91,119 147,146 388,166 568,62 80,-47 159,-107 217,-178 74,-94 97,-111 179,-234 110,-165 195,-350 274,-532l59 -144c3,-6 6,-15 9,-23 1,-3 4,-10 5,-12 7,-15 2,-6 8,-15 0,87 -12,177 -16,258 -5,97 -5,175 -8,275 -1,45 -9,73 -8,129l-8 266c0,207 -6,461 266,461 138,0 259,-76 338,-139 86,-67 165,-165 209,-275 11,-27 24,-56 27,-87 3,-44 1,-79 6,-115 11,-82 1,-148 13,-229 6,-38 3,-74 9,-112l72 -292c105,-323 315,-867 560,-1120 39,-41 73,-111 139,-111 130,0 6,671 1,696 -61,308 -151,701 -289,979 -17,34 -26,51 -48,81 -65,94 -63,134 78,150 202,22 432,-26 591,-136 135,-93 132,-214 192,-364 71,-176 128,-353 227,-517 187,-311 528,-576 541,-41 1,59 8,91 8,145 -1,204 0,404 15,591 8,96 10,185 25,274 38,224 128,517 404,517 386,0 626,-1174 695,-1470 53,76 24,121 163,240 83,70 232,99 362,99 111,0 219,-153 266,-242l32 -49c0,542 550,807 966,554 61,-36 105,-88 151,-140 59,-65 104,-139 146,-217 78,-142 134,-295 179,-451 7,-26 -1,-14 12,-29 10,-10 74,-35 95,-50 153,-110 91,-248 2,-248 -49,0 -59,30 -97,40 -14,-169 -318,-88 -148,180 17,27 36,35 34,68 -5,76 -112,319 -144,382 -79,158 -217,420 -428,420 -103,0 -166,-96 -197,-175 -83,-215 -56,-536 16,-741 34,-96 148,-251 148,-344 0,-125 -180,-153 -290,-153 -72,0 -127,16 -183,35 -52,17 -105,45 -142,85 -37,40 -53,84 -68,150 -43,198 -68,553 -191,705 -155,190 -264,63 -264,-168 0,-174 36,-389 99,-514 17,-33 28,-60 47,-90 163,-252 322,-145 322,-187 0,-58 -27,-83 -58,-112 -65,-60 -172,-50 -257,-50 -334,0 -557,367 -598,662 -5,36 -5,55 -8,97 -6,86 -39,174 -61,262 -55,219 -303,1225 -472,1225 -52,0 -71,-277 -73,-339 -5,-211 -20,-456 -46,-657 -35,-274 -83,-757 -365,-757 -203,0 -318,37 -471,151l-97 81c-117,117 -194,266 -249,421l-15 33c2,-102 32,-211 32,-323 0,-191 -1,-359 -50,-539 -61,-225 -166,-382 -412,-351 -68,9 -102,19 -152,42 -212,99 -356,318 -472,514 -93,158 -170,323 -229,497l-18 39c0,-119 21,-225 24,-339 1,-31 6,-83 11,-119 36,-279 60,-589 125,-860 109,-451 -586,-269 -774,-6 -123,172 -136,407 -166,625l-27 239c-25,448 -263,997 -503,1355 -53,80 -185,260 -289,260 -90,0 -156,-144 -174,-229 -140,-646 132,-2068 289,-2693 40,-159 85,-335 142,-487 61,-163 103,-190 -15,-387 -15,-25 -33,-51 -52,-77 -128,-178 -432,-443 -583,-138 -121,243 -179,503 -245,772 -110,450 -182,976 -219,1462 -3,42 -10,114 -14,155 -6,52 -3,114 -8,162 -9,79 17,276 -8,331 -16,37 -78,108 -105,145 -107,146 -211,293 -331,429 -26,30 -56,56 -84,85l-89 81c-30,29 -163,129 -200,139 29,-62 55,-479 57,-589 0,-54 -3,-109 -1,-162 2,-50 8,-92 8,-154 0,-90 -9,-246 4,-327 13,-86 8,-508 25,-621l51 -604c11,-99 19,-200 31,-292 13,-99 24,-190 35,-287 11,-92 28,-187 45,-279 48,-266 105,-528 209,-777 87,-211 144,-189 269,-215 138,-28 109,-192 -111,-192 -141,0 -279,6 -412,40 -211,55 -474,166 -651,294 -183,133 -332,299 -474,472 -49,60 -91,117 -135,179 -131,185 -248,385 -365,580 -80,133 -149,272 -222,408 -111,207 -209,421 -318,628z"/>
    <path class="fil0" d="M8344 9248c-197,0 156,-856 412,-856 0,223 -221,856 -412,856zm4062 -1817c-21,0 -22,-4 -40,-8 9,-37 86,-147 111,-180 292,-393 320,188 -71,188zm-2366 -113c-45,-12 -268,-305 -134,-482 86,-114 271,-85 271,78 0,232 -109,300 -137,404zm-3465 1551l-33 0c-220,0 -60,-879 -49,-946 26,-155 90,-397 90,-541 0,-227 -718,-346 -840,-72 -38,83 -107,662 -126,795 -37,267 -48,693 132,895 129,145 312,184 511,184 265,0 504,-241 651,-423 84,-103 150,-198 220,-314 55,-92 118,-207 160,-308l27 -46c0,116 -6,250 0,364l8 177c0,71 8,108 8,178 0,42 5,50 8,81 6,80 2,161 78,205 183,105 590,77 667,-25 28,-37 27,-235 30,-285 4,-52 11,-99 16,-146 34,-294 164,-974 421,-1146 77,20 132,133 158,213 58,173 60,314 60,497 0,37 -12,39 -39,50 -394,157 -778,1061 -371,1111 123,16 230,7 327,-32 369,-148 525,-682 572,-1035 10,-79 4,-49 95,-99 27,-15 36,-20 60,-37 41,-32 64,-48 101,-85 18,-18 30,-30 48,-48 18,-18 31,-39 47,-51 0,105 -27,213 -32,315 -18,350 -54,798 153,1107 97,145 209,238 381,281 304,75 487,-32 691,-235 110,-109 198,-240 290,-365 64,-88 126,-193 178,-290 68,-126 336,-633 366,-764 1,1 3,2 3,5 6,35 78,156 96,178 132,156 348,269 580,269 208,0 323,-28 500,-130 52,-30 108,-66 155,-103 74,-60 134,-129 199,-197 65,-69 118,-145 168,-228 13,-22 32,-70 46,-83 55,-49 200,-56 200,-204 0,-49 -49,-97 -97,-97 -33,0 -64,27 -89,40 -30,-128 -202,-110 -202,8 0,75 35,179 89,219 -42,62 -69,136 -115,199l-150 174c-79,80 -285,208 -438,208 -121,0 -191,-15 -277,-103 -132,-135 -67,-455 3,-600 155,0 289,-15 387,-73 221,-129 231,-408 34,-566 -74,-60 -200,-96 -333,-96 -390,0 -669,361 -756,706 -41,165 2,195 -75,369l-89 202c-82,161 -155,331 -249,486l-162 274c-93,149 -195,300 -314,429 -95,101 -200,232 -358,232 -27,-116 -89,-161 -89,-420 0,-454 60,-751 141,-1168 47,-241 42,-130 -138,-345l-89 -96c-32,-31 -68,-60 -91,-95 12,-44 46,-85 67,-127 109,-218 204,-526 -48,-700 -155,-108 -411,-97 -586,-38 -41,13 -77,27 -115,46 -268,137 -416,446 -335,745 39,139 218,369 343,465 33,26 51,55 84,77 -64,97 -157,173 -258,227 0,-206 -22,-389 -140,-548 -110,-148 -267,-236 -458,-236 -288,0 -456,420 -519,644l-87 301c0,-90 -9,-246 4,-328 7,-50 4,-110 4,-165 0,-105 15,-214 16,-323l11 -159c13,-96 11,-211 24,-315 12,-94 20,-199 31,-300 11,-96 26,-202 40,-300l71 -437c7,-43 25,-107 25,-145 0,-206 -615,-404 -693,-168 -115,351 -184,819 -220,1193l-32 397c-3,36 -4,94 -9,136 -22,193 5,317 -63,503 -76,210 -411,1001 -711,1001z"/>
    <path class="fil0" d="M5064 9636c331,-175 953,-308 1333,-307 45,0 56,-5 90,-8l296 17c197,20 480,83 637,188 160,108 172,173 172,320 0,131 -154,325 -244,402l-189 134c-86,51 -103,67 -212,111 -472,194 -909,20 -1288,-264 -136,-101 -263,-231 -383,-353l-212 -240zm-2827 -905c0,-132 108,-226 202,-266 131,-55 270,1 369,51 55,27 96,56 144,91 83,60 337,268 376,326 -132,249 -360,265 -621,201 -37,-9 -73,-20 -111,-34 -161,-62 -359,-168 -359,-369zm315 -2019c0,310 514,352 729,228 308,-178 57,-520 -172,-414 -95,45 -143,172 -117,272 15,57 28,55 53,92l-129 0c-298,-19 -316,-211 -153,-427 54,-71 104,-118 167,-181 57,-58 129,-104 195,-153 35,-26 70,-45 107,-70 229,-148 609,-295 861,-358 87,-22 202,-61 293,-63 -58,86 -121,164 -170,258 -104,202 -179,416 -236,637 -87,339 -148,759 -190,1109 -27,223 -57,432 -118,642 -11,35 -21,49 -29,84 -20,-9 -46,-17 -67,-23 -80,-21 -138,-49 -221,-69 -154,-39 -265,-54 -431,-54 -187,0 -398,59 -520,127 -67,38 -130,88 -181,142 -185,197 -71,469 124,599 45,29 77,46 124,70 87,42 178,68 286,93 210,48 411,54 620,12 63,-12 221,-72 233,-73 9,31 34,45 55,66l375 400c77,83 185,179 255,263 24,30 33,41 61,68l371 396c16,18 46,49 65,64 17,14 19,14 36,29 301,279 784,418 1198,418 207,0 435,-52 590,-104 178,-59 325,-134 475,-219 71,-41 146,-88 212,-136 33,-24 65,-47 97,-73 64,-52 119,-112 171,-176 56,-69 100,-140 130,-226 38,-109 35,-219 -17,-321 -74,-146 -231,-228 -382,-288 -634,-251 -1621,-139 -2224,151 -29,14 -47,28 -78,35 -19,-27 -22,-34 -47,-58l-97 -113c-66,-82 -292,-309 -371,-388 -63,-64 -286,-259 -358,-297 124,-185 194,-336 266,-550 120,-358 185,-744 249,-1116 68,-393 172,-904 391,-1240 53,-81 118,-162 198,-215 62,-42 118,-166 -126,-166 -131,0 -289,33 -417,59 -563,115 -1120,263 -1599,582 -52,34 -95,66 -141,101l-96 83c-15,12 -19,13 -35,29 -112,107 -265,286 -265,462z"/>
    <path class="fil0" d="M5912 6155c0,156 52,297 118,407 38,63 57,86 107,136 24,24 38,36 65,56 11,8 72,47 82,47 293,0 665,-378 674,-632 10,-276 -262,-333 -432,-111l-105 129c-7,-88 -100,-315 -250,-315 -84,0 -146,18 -197,94 -36,51 -62,105 -62,189z"/>
   </g>
  </g>
 </g>
</svg>
