<svg width="194" height="149" viewBox="0 0 194 149" fill="none" xmlns="http://www.w3.org/2000/svg">
<g clip-path="url(#clip0_196_96)" filter="url(#filter0_d_196_96)">
<g filter="url(#filter1_d_196_96)">
<path fill-rule="evenodd" clip-rule="evenodd" d="M49.5061 36.2435C50.1536 36.4116 51.4486 37.6529 51.9925 38.1313L52.2644 38.3899C56.3566 42.825 58.338 48.8505 59.0243 54.8243C59.1538 55.9621 59.3351 57.3457 59.3351 58.587C59.3351 59.5179 59.2315 60.0481 59.2315 60.992C56.525 60.992 55.0357 60.7075 52.6788 60.1127C48.6255 59.1042 44.4168 57.1388 41.2699 54.4881L39.4569 52.8459C39.703 52.4839 39.8584 52.3029 40.1303 51.9537C41.1793 50.5702 42.7074 48.4755 43.588 47.0402C44.6628 45.2688 49.0658 38.0796 49.5061 36.2435ZM38.3044 51.2814C37.372 51.0357 34.9633 46.4455 34.9633 43.5491C34.9633 41.7906 35.0928 40.9242 35.6756 39.4631C36.1936 38.1701 37.3072 36.7478 38.4986 36.0107C39.8713 35.1444 41.6066 34.5755 43.4326 34.5755C44.7535 34.5755 46.955 34.9893 47.8226 35.403C47.7319 35.8039 47.5247 36.14 47.3176 36.4633C46.2298 38.2606 44.6369 41.3897 43.329 43.562C42.28 45.2947 40.8426 47.7643 39.6382 49.3677L38.3044 51.2814ZM61.2128 57.7594C61.1092 56.5052 60.9927 55.1604 60.8891 53.8933C60.5912 50.2469 59.7106 47.0144 58.325 43.7172C57.8977 42.6828 57.4444 41.8811 56.8876 40.976C55.994 39.4631 54.4271 37.3814 53.0155 36.2823C52.4975 35.8814 51.0212 34.7048 50.4385 34.5755C50.555 34.11 51.073 33.2049 51.3191 32.7265C51.6299 32.0799 51.9277 31.6145 52.2515 30.955C52.4198 30.6059 52.5364 30.3861 52.7047 30.037C54.8803 25.77 58.6876 18.8782 61.1481 15.1801L66.1079 9.06411L67.5972 7.73229L66.613 10.189C66.2892 11.1329 66.0302 11.9088 65.7453 12.8785C64.1525 18.4385 62.9481 25.033 62.456 30.7999C62.1452 34.5755 62.0546 40.5234 62.0546 44.493C62.0546 46.536 62.2229 49.6263 61.9769 51.4107C61.7567 53.014 62.0028 54.6303 61.4459 57.0483L61.2128 57.7594ZM48.8715 33.6316C45.3751 31.9506 41.257 32.0024 37.9159 33.9807C34.9504 35.7263 32.8654 39.1916 32.8654 42.825C32.8654 46.6523 33.8626 49.122 35.9087 52.0055C36.1288 52.3287 36.4396 52.652 36.6339 52.9494C36.5432 53.2856 36.1677 53.6735 35.9346 53.9191C35.6108 54.2424 35.4813 54.4751 35.1446 54.8113C34.536 55.4061 34.018 55.9233 33.4223 56.5311C32.8395 57.1 32.3086 57.6043 31.6611 58.1085C29.6409 59.6731 27.7502 61.0308 25.3286 62.0264C22.635 63.1255 17.6492 64.1082 14.8132 62.4143C14.3082 62.104 13.9844 61.9488 13.5312 61.5997C12.7024 60.9791 12.029 60.2808 11.4074 59.4404C10.8376 58.6645 10.2807 57.656 9.94402 56.725C9.81452 56.363 9.47783 55.4449 9.43898 55.0441L10.7728 54.5915C12.0549 54.0872 13.311 53.4795 14.4377 52.7166C15.2664 52.1606 15.6938 51.7081 16.3154 50.9452C19.1126 47.5575 15.7715 42.5405 11.8865 45.3722C11.6016 45.5791 11.3297 45.8636 11.0059 45.9541C10.9023 44.6482 9.51667 42.825 7.76843 42.825C5.29499 42.825 4 44.7516 4 47.1049C4 49.1479 5.42449 51.5658 6.35689 52.7813C7.08209 53.7252 7.05619 54.6691 7.39288 55.8328C8.22168 58.7551 9.63322 61.548 12.0678 63.3841C18.2449 68.026 27.2581 64.1211 32.3086 60.0222C32.6971 59.7119 32.9561 59.4791 33.3446 59.1688L35.3518 57.4103C36.2324 56.6733 37.372 55.057 38.0972 54.5139L40.0526 56.2207C42.1376 57.9017 44.4038 59.2464 46.942 60.3067C48.7291 61.0437 50.4773 61.6644 52.4069 62.1686C54.1422 62.6083 56.7192 63.0867 58.9077 63.0867C58.3509 65.4788 60.2157 65.4788 62.1582 65.4788C65.1237 65.4788 71.262 64.3409 72.8548 61.9488C73.1397 61.5221 73.3599 60.7592 73.8002 60.5006C74.3052 60.1903 74.8362 60.0093 75.3801 59.686C77.206 58.587 79.278 57.0353 80.56 55.3544L84.5745 50.3633C84.6652 50.234 84.7558 50.1306 84.8594 50.0271C84.9889 50.5961 85.1961 53.2985 85.4551 54.6432C85.8695 56.8155 86.4134 58.7163 87.5142 60.5265C87.9027 61.1859 88.1746 61.548 88.6926 62.0652C90.5963 63.953 93.7172 64.2116 96.0482 62.8669C97.0842 62.2592 98.1072 61.4833 98.8583 60.5653C99.8166 59.3498 100.114 59.13 101.176 57.5396C102.601 55.4061 103.702 53.014 104.725 50.6607L105.489 48.7988C105.528 48.7212 105.566 48.6048 105.605 48.5014C105.618 48.4626 105.657 48.3721 105.67 48.3462C105.761 48.1522 105.696 48.2686 105.774 48.1523C105.774 49.2772 105.618 50.4409 105.566 51.4883C105.502 52.7425 105.502 53.751 105.463 55.0441C105.45 55.6259 105.346 55.988 105.359 56.7121L105.256 60.1515C105.256 62.8281 105.178 66.1124 108.7 66.1124C110.487 66.1124 112.054 65.1297 113.077 64.3151C114.191 63.4487 115.214 62.1816 115.784 60.7592C115.926 60.4101 116.095 60.0351 116.134 59.6343C116.172 59.0654 116.146 58.6128 116.211 58.1473C116.354 57.0871 116.224 56.2337 116.38 55.1863C116.457 54.695 116.418 54.2295 116.496 53.7381L117.429 49.9625C118.788 45.786 121.508 38.752 124.681 35.4806C125.186 34.9505 125.626 34.0453 126.481 34.0453C128.164 34.0453 126.558 42.7215 126.493 43.0448C125.704 47.0273 124.538 52.1089 122.751 55.7035C122.531 56.1431 122.414 56.363 122.129 56.7509C121.288 57.9663 121.314 58.4835 123.139 58.6904C125.755 58.9749 128.734 58.3542 130.793 56.9319C132.541 55.7294 132.502 54.1648 133.279 52.2253C134.199 49.9496 134.937 47.6609 136.219 45.5403C138.641 41.519 143.056 38.0925 143.225 45.0102C143.238 45.7731 143.328 46.1868 143.328 46.8851C143.315 49.5229 143.328 52.1089 143.523 54.5269C143.626 55.7682 143.652 56.919 143.846 58.0697C144.339 60.9661 145.504 64.7547 149.078 64.7547C154.077 64.7547 157.185 49.5746 158.078 45.7472C158.765 46.7299 158.389 47.3118 160.189 48.8505C161.264 49.7556 163.194 50.1306 164.877 50.1306C166.315 50.1306 167.713 48.1522 168.322 47.0015L168.736 46.3679C168.736 53.3761 175.859 56.8026 181.246 53.5312C182.036 53.0657 182.606 52.3934 183.201 51.721C183.965 50.8805 184.548 49.9237 185.092 48.9151C186.102 47.079 186.827 45.1007 187.41 43.0836C187.501 42.7474 187.397 42.9026 187.565 42.7086C187.695 42.5793 188.524 42.2561 188.796 42.0621C190.777 40.6398 189.974 38.8554 188.822 38.8554C188.187 38.8554 188.057 39.2433 187.565 39.3726C187.384 37.1874 183.447 38.2347 185.649 41.7001C185.869 42.0492 186.115 42.1526 186.089 42.5793C186.024 43.562 184.639 46.7041 184.224 47.5187C183.201 49.5616 181.414 52.9494 178.682 52.9494C177.348 52.9494 176.532 51.7081 176.131 50.6866C175.056 47.9066 175.405 43.756 176.338 41.1053C176.778 39.864 178.254 37.8598 178.254 36.6573C178.254 35.041 175.923 34.6789 174.499 34.6789C173.567 34.6789 172.854 34.8858 172.129 35.1315C171.456 35.3513 170.769 35.7133 170.29 36.2306C169.811 36.7478 169.604 37.3167 169.41 38.1701C168.853 40.7303 168.529 45.3205 166.936 47.2859C164.929 49.7427 163.517 48.1005 163.517 45.1136C163.517 42.8638 163.984 40.0838 164.799 38.4675C165.02 38.0408 165.162 37.6917 165.408 37.3038C167.519 34.0453 169.578 35.4289 169.578 34.8858C169.578 34.1359 169.228 33.8126 168.827 33.4376C167.985 32.6618 166.599 32.7911 165.499 32.7911C161.173 32.7911 158.286 37.5365 157.755 41.3509C157.69 41.8164 157.69 42.0621 157.651 42.6052C157.573 43.7172 157.146 44.855 156.861 45.9929C156.149 48.8246 152.937 61.8325 150.749 61.8325C150.075 61.8325 149.829 58.2508 149.803 57.4491C149.739 54.7208 149.544 51.5529 149.208 48.9539C148.754 45.411 148.133 39.1657 144.481 39.1657C141.852 39.1657 140.363 39.6441 138.382 41.1182L137.125 42.1655C135.61 43.6784 134.613 45.605 133.901 47.6092L133.707 48.0359C133.732 46.717 134.121 45.3076 134.121 43.8594C134.121 41.3897 134.108 39.2174 133.474 36.89C132.684 33.9807 131.324 31.9506 128.138 32.3515C127.258 32.4679 126.817 32.5972 126.17 32.8946C123.424 34.1746 121.56 37.0064 120.057 39.5407C118.853 41.5837 117.856 43.7172 117.092 45.967L116.859 46.4713C116.859 44.9326 117.131 43.562 117.17 42.088C117.182 41.6871 117.247 41.0148 117.312 40.5493C117.778 36.9417 118.089 32.9333 118.931 29.4292C120.342 23.5977 111.342 25.951 108.907 29.3517C107.315 31.5757 107.146 34.6143 106.758 37.4331L106.408 40.5234C106.084 46.3162 103.002 53.4149 99.8943 58.0439C99.208 59.0783 97.4986 61.4058 96.1518 61.4058C94.9863 61.4058 94.1316 59.5438 93.8985 58.4447C92.0855 50.0918 95.6079 31.705 97.641 23.6236C98.159 21.5677 98.7418 19.2919 99.4799 17.3265C100.27 15.2189 100.814 14.8698 99.2857 12.3225C99.0914 11.9993 98.8583 11.6631 98.6123 11.3269C96.9547 9.02531 93.0179 5.5988 91.0625 9.54252C89.4955 12.6846 88.7444 16.0464 87.8897 19.5247C86.4652 25.3433 85.5328 32.1446 85.0537 38.4287C85.0148 38.9718 84.9242 39.9027 84.8724 40.4329C84.7947 41.1053 84.8335 41.9069 84.7688 42.5276C84.6522 43.5491 84.9889 46.0963 84.6652 46.8075C84.458 47.2859 83.6551 48.204 83.3054 48.6824C81.9198 50.5702 80.573 52.471 79.019 54.2295C78.6823 54.6174 78.2938 54.9536 77.9312 55.3285L76.7787 56.3759C76.3902 56.7509 74.6678 58.0439 74.1887 58.1732C74.5642 57.3715 74.9009 51.9796 74.9268 50.5573C74.9268 49.859 74.888 49.1479 74.9139 48.4626C74.9398 47.8161 75.0175 47.273 75.0175 46.4713C75.0175 45.3076 74.9009 43.2905 75.0693 42.2431C75.2376 41.1311 75.1729 35.6746 75.393 34.2134L76.0535 26.4036C76.1959 25.1235 76.2995 23.8175 76.4549 22.6279C76.6233 21.3478 76.7657 20.1712 76.9082 18.917C77.0506 17.7274 77.2708 16.499 77.4909 15.3094C78.1125 11.87 78.8507 8.48224 80.1974 5.26261C81.3241 2.53433 82.0622 2.81879 83.681 2.48261C85.4681 2.12056 85.0925 0 82.2435 0C80.4176 0 78.6305 0.0775815 76.9082 0.51721C74.1757 1.22837 70.7699 2.66363 68.4778 4.3187C66.1079 6.03843 64.1784 8.18485 62.3395 10.4218C61.7049 11.1976 61.161 11.9346 60.5912 12.7363C58.8948 15.1284 57.3797 17.7144 55.8645 20.2358C54.8285 21.9556 53.935 23.7529 52.9896 25.5114C51.5522 28.1879 50.2831 30.955 48.8715 33.6316Z" fill="white"/>
</g>
<g filter="url(#filter2_d_196_96)">
<path fill-rule="evenodd" clip-rule="evenodd" d="M112.054 119.579C109.503 119.579 114.075 108.511 117.39 108.511C117.39 111.394 114.528 119.579 112.054 119.579ZM164.657 96.0848C164.385 96.0848 164.372 96.033 164.139 95.9813C164.256 95.5029 165.253 94.0806 165.577 93.6539C169.358 88.5723 169.72 96.0848 164.657 96.0848ZM134.017 94.6236C133.435 94.4685 130.547 90.6799 132.282 88.3913C133.396 86.9172 135.792 87.2922 135.792 89.3998C135.792 92.3996 134.38 93.2789 134.017 94.6236ZM89.1459 114.678H88.7186C85.8696 114.678 87.9416 103.313 88.084 102.446C88.4207 100.442 89.2495 97.3131 89.2495 95.4512C89.2495 92.516 79.9515 90.9773 78.3716 94.5202C77.8795 95.5934 76.9859 103.08 76.7399 104.8C76.2607 108.252 76.1183 113.76 78.4493 116.372C80.1198 118.247 82.4897 118.751 85.0667 118.751C88.4984 118.751 91.5935 115.635 93.4971 113.282C94.5849 111.95 95.4396 110.722 96.3461 109.222C97.0584 108.032 97.8742 106.545 98.4181 105.239L98.7677 104.645C98.7677 106.144 98.69 107.877 98.7677 109.351L98.8713 111.64C98.8713 112.558 98.9749 113.036 98.9749 113.941C98.9749 114.485 99.0397 114.588 99.0785 114.989C99.1562 116.023 99.1044 117.071 100.089 117.639C102.458 118.997 107.729 118.635 108.726 117.316C109.089 116.838 109.076 114.278 109.115 113.631C109.167 112.959 109.257 112.351 109.322 111.743C109.762 107.942 111.446 99.1492 114.774 96.9252C115.771 97.1838 116.483 98.6449 116.82 99.6794C117.571 101.916 117.597 103.739 117.597 106.106C117.597 106.584 117.442 106.61 117.092 106.752C111.99 108.782 107.017 120.471 112.287 121.118C113.88 121.325 115.266 121.208 116.522 120.704C121.301 118.79 123.321 111.886 123.929 107.321C124.059 106.3 123.981 106.688 125.16 106.041C125.509 105.847 125.626 105.782 125.937 105.563C126.468 105.149 126.766 104.942 127.245 104.464C127.478 104.231 127.633 104.076 127.866 103.843C128.099 103.61 128.268 103.339 128.475 103.183C128.475 104.541 128.125 105.938 128.061 107.256C127.827 111.782 127.361 117.575 130.042 121.57C131.298 123.445 132.748 124.648 134.976 125.204C138.913 126.173 141.282 124.79 143.924 122.165C145.349 120.756 146.488 119.062 147.68 117.446C148.508 116.308 149.311 114.95 149.985 113.696C150.865 112.067 154.336 105.511 154.724 103.817C154.737 103.83 154.763 103.843 154.763 103.882C154.841 104.334 155.773 105.899 156.007 106.183C157.716 108.2 160.513 109.662 163.517 109.662C166.211 109.662 167.7 109.299 169.992 107.981C170.666 107.593 171.391 107.127 172 106.649C172.958 105.873 173.735 104.981 174.577 104.102C175.418 103.209 176.105 102.227 176.752 101.153C176.921 100.869 177.167 100.248 177.348 100.08C178.06 99.4466 179.938 99.3561 179.938 97.4424C179.938 96.8089 179.303 96.1882 178.682 96.1882C178.255 96.1882 177.853 96.5373 177.529 96.7054C177.141 95.0503 174.913 95.2831 174.913 96.8088C174.913 97.7786 175.367 99.1234 176.066 99.6406C175.522 100.442 175.172 101.399 174.577 102.214L172.634 104.464C171.611 105.498 168.943 107.153 166.962 107.153C165.395 107.153 164.489 106.959 163.375 105.821C161.666 104.076 162.507 99.938 163.414 98.0631C165.421 98.0631 167.156 97.8691 168.425 97.1192C171.287 95.4512 171.417 91.8436 168.866 89.8007C167.907 89.0248 166.276 88.5594 164.553 88.5594C159.503 88.5594 155.89 93.2272 154.763 97.6881C154.232 99.8216 154.789 100.21 153.792 102.459L152.64 105.071C151.578 107.153 150.632 109.351 149.415 111.355L147.317 114.898C146.113 116.825 144.792 118.777 143.251 120.445C142.021 121.751 140.661 123.445 138.615 123.445C138.265 121.945 137.462 121.363 137.462 118.014C137.462 112.144 138.239 108.304 139.288 102.912C139.897 99.7957 139.832 101.231 137.501 98.451L136.348 97.2097C135.934 96.8088 135.468 96.4339 135.17 95.9813C135.325 95.4124 135.766 94.8822 136.038 94.3392C137.449 91.5204 138.679 87.5379 135.416 85.288C133.409 83.8915 130.094 84.0338 127.827 84.7966C127.296 84.9647 126.83 85.1458 126.338 85.3914C122.868 87.1629 120.951 91.1583 122 95.0245C122.505 96.8218 124.823 99.7957 126.442 101.037C126.869 101.373 127.102 101.748 127.53 102.033C126.701 103.287 125.496 104.27 124.188 104.968C124.188 102.304 123.904 99.938 122.375 97.8821C120.951 95.9684 118.918 94.8305 116.444 94.8305C112.715 94.8305 110.539 100.261 109.723 103.158L108.597 107.05C108.597 105.886 108.48 103.869 108.649 102.808C108.739 102.162 108.7 101.386 108.7 100.675C108.7 99.3173 108.895 97.9079 108.908 96.4985L109.05 94.4426C109.218 93.2013 109.192 91.7143 109.361 90.3696C109.516 89.1541 109.62 87.7965 109.762 86.4905C109.905 85.2492 110.099 83.8786 110.28 82.6114L111.2 76.9609C111.29 76.4049 111.523 75.5774 111.523 75.086C111.523 72.4224 103.559 69.8622 102.549 72.9138C101.06 77.4523 100.166 83.5036 99.7001 88.3395L99.2857 93.4728C99.2469 93.9383 99.2339 94.6883 99.1692 95.2314C98.8843 97.7269 99.2339 99.3302 98.3533 101.735C97.3692 104.451 93.0309 114.678 89.1459 114.678Z" fill="white"/>
<path fill-rule="evenodd" clip-rule="evenodd" d="M69.5784 124.596C73.8648 122.333 81.9197 120.613 86.8406 120.626C87.4234 120.626 87.5658 120.562 88.0061 120.523L91.8393 120.743C94.3905 121.001 98.0553 121.816 100.088 123.174C102.16 124.57 102.316 125.411 102.316 127.311C102.316 129.005 100.322 131.514 99.156 132.509L96.7085 134.242C95.5948 134.901 95.3747 135.108 93.9631 135.677C87.8507 138.186 82.1916 135.936 77.2836 132.264C75.5224 130.958 73.8777 129.277 72.3237 127.699L69.5784 124.596ZM32.9689 112.894C32.9689 111.187 34.3675 109.972 35.5848 109.455C37.2812 108.743 39.0812 109.468 40.3633 110.114C41.0755 110.463 41.6065 110.838 42.2281 111.291C43.3029 112.067 46.5922 114.756 47.0973 115.506C45.3879 118.726 42.4353 118.933 39.0553 118.105C38.5762 117.989 38.11 117.846 37.6179 117.665C35.533 116.864 32.9689 115.493 32.9689 112.894ZM37.0481 86.7879C37.0481 90.7963 43.7044 91.3394 46.4886 89.736C50.4772 87.4344 47.2268 83.0123 44.2612 84.3829C43.031 84.9648 42.4094 86.6069 42.7461 87.8999C42.9403 88.637 43.1087 88.6111 43.4324 89.0895H41.7619C37.9028 88.8438 37.6697 86.3612 39.7805 83.5683C40.4798 82.6503 41.1273 82.0425 41.9432 81.2279C42.6813 80.478 43.6137 79.8832 44.4684 79.2496C44.9217 78.9134 45.3749 78.6677 45.8541 78.3445C48.8196 76.4308 53.7406 74.5301 57.004 73.7155C58.1306 73.431 59.6199 72.9267 60.7983 72.9008C60.0472 74.0128 59.2314 75.0214 58.5968 76.2369C57.25 78.8488 56.2788 81.6158 55.5406 84.4734C54.414 88.8568 53.624 94.2875 53.0801 98.8131C52.7305 101.697 52.342 104.399 51.552 107.114C51.4096 107.567 51.2801 107.748 51.1765 108.2C50.9175 108.084 50.5808 107.981 50.3088 107.903C49.2729 107.631 48.5218 107.269 47.4469 107.011C45.4526 106.507 44.0152 106.313 41.8655 106.313C39.4438 106.313 36.7114 107.075 35.1315 107.955C34.2639 108.446 33.448 109.093 32.7876 109.791C30.3918 112.338 31.8681 115.855 34.3934 117.536C34.9761 117.911 35.3905 118.131 35.9992 118.441C37.1258 118.984 38.3043 119.32 39.7028 119.644C42.4223 120.264 45.0253 120.342 47.7318 119.799C48.5477 119.644 50.5937 118.868 50.7491 118.855C50.8657 119.256 51.1894 119.437 51.4614 119.708L56.3176 124.88C57.3148 125.954 58.7134 127.195 59.6199 128.281C59.9307 128.669 60.0472 128.811 60.4098 129.16L65.2142 134.281C65.4214 134.513 65.8099 134.914 66.056 135.108C66.2761 135.289 66.302 135.289 66.5222 135.483C70.4201 139.091 76.6749 140.888 82.0362 140.888C84.7168 140.888 87.6694 140.216 89.6767 139.543C91.9818 138.78 93.8854 137.811 95.8279 136.712C96.7473 136.181 97.7186 135.574 98.5733 134.953C99.0006 134.643 99.415 134.345 99.8294 134.009C100.658 133.337 101.37 132.561 102.044 131.733C102.769 130.841 103.339 129.923 103.727 128.811C104.219 127.402 104.181 125.98 103.507 124.661C102.549 122.773 100.516 121.713 98.5603 120.937C90.3501 117.691 77.5685 119.139 69.7597 122.889C69.3841 123.07 69.151 123.251 68.7496 123.342C68.5035 122.993 68.4647 122.902 68.1409 122.592L66.8848 121.131C66.0301 120.07 63.1034 117.135 62.0803 116.114C61.2645 115.286 58.3767 112.765 57.4443 112.273C59.0501 109.881 59.9566 107.929 60.889 105.162C62.4429 100.533 63.2847 95.5417 64.1135 90.7317C64.9941 85.6501 66.3409 79.0427 69.1769 74.6982C69.8633 73.6508 70.705 72.6035 71.741 71.9181C72.5439 71.3751 73.2691 69.7717 70.1093 69.7717C68.4129 69.7717 66.3668 70.1984 64.7092 70.5346C57.4184 72.0216 50.2052 73.9353 44.0022 78.06C43.3288 78.4996 42.772 78.9134 42.1763 79.366L40.9331 80.4392C40.7388 80.5943 40.687 80.6073 40.4798 80.8142C39.0294 82.1977 37.0481 84.5122 37.0481 86.7879Z" fill="white"/>
<path fill-rule="evenodd" clip-rule="evenodd" d="M80.5601 79.5858C80.5601 81.6029 81.2335 83.4261 82.0882 84.8484C82.5802 85.663 82.8263 85.9604 83.4738 86.6069C83.7846 86.9172 83.9659 87.0724 84.3155 87.331C84.458 87.4344 85.2479 87.9387 85.3774 87.9387C89.1718 87.9387 93.9891 83.0511 94.1057 79.7668C94.2352 76.198 90.7128 75.461 88.5113 78.3315L87.1516 79.9995C87.0609 78.8617 85.8566 75.9265 83.9141 75.9265C82.8263 75.9265 82.0234 76.1593 81.363 77.142C80.8968 77.8014 80.5601 78.4996 80.5601 79.5858Z" fill="white"/>
</g>
</g>
<defs>
<filter id="filter0_d_196_96" x="0" y="0" width="194" height="148.888" filterUnits="userSpaceOnUse" color-interpolation-filters="sRGB">
<feFlood flood-opacity="0" result="BackgroundImageFix"/>
<feColorMatrix in="SourceAlpha" type="matrix" values="0 0 0 0 0 0 0 0 0 0 0 0 0 0 0 0 0 0 127 0" result="hardAlpha"/>
<feOffset dy="4"/>
<feGaussianBlur stdDeviation="2"/>
<feComposite in2="hardAlpha" operator="out"/>
<feColorMatrix type="matrix" values="0 0 0 0 0 0 0 0 0 0 0 0 0 0 0 0 0 0 0.25 0"/>
<feBlend mode="normal" in2="BackgroundImageFix" result="effect1_dropShadow_196_96"/>
<feBlend mode="normal" in="SourceGraphic" in2="effect1_dropShadow_196_96" result="shape"/>
</filter>
<filter id="filter1_d_196_96" x="0" y="0" width="194.001" height="74.1123" filterUnits="userSpaceOnUse" color-interpolation-filters="sRGB">
<feFlood flood-opacity="0" result="BackgroundImageFix"/>
<feColorMatrix in="SourceAlpha" type="matrix" values="0 0 0 0 0 0 0 0 0 0 0 0 0 0 0 0 0 0 127 0" result="hardAlpha"/>
<feOffset dy="4"/>
<feGaussianBlur stdDeviation="2"/>
<feComposite in2="hardAlpha" operator="out"/>
<feColorMatrix type="matrix" values="0 0 0 0 0 0 0 0 0 0 0 0 0 0 0 0 0 0 0.25 0"/>
<feBlend mode="normal" in2="BackgroundImageFix" result="effect1_dropShadow_196_96"/>
<feBlend mode="normal" in="SourceGraphic" in2="effect1_dropShadow_196_96" result="shape"/>
</filter>
<filter id="filter2_d_196_96" x="27.5737" y="69.7717" width="156.364" height="79.1163" filterUnits="userSpaceOnUse" color-interpolation-filters="sRGB">
<feFlood flood-opacity="0" result="BackgroundImageFix"/>
<feColorMatrix in="SourceAlpha" type="matrix" values="0 0 0 0 0 0 0 0 0 0 0 0 0 0 0 0 0 0 127 0" result="hardAlpha"/>
<feOffset dy="4"/>
<feGaussianBlur stdDeviation="2"/>
<feComposite in2="hardAlpha" operator="out"/>
<feColorMatrix type="matrix" values="0 0 0 0 0 0 0 0 0 0 0 0 0 0 0 0 0 0 0.25 0"/>
<feBlend mode="normal" in2="BackgroundImageFix" result="effect1_dropShadow_196_96"/>
<feBlend mode="normal" in="SourceGraphic" in2="effect1_dropShadow_196_96" result="shape"/>
</filter>
<clipPath id="clip0_196_96">
<rect width="186" height="140.888" fill="white" transform="translate(4)"/>
</clipPath>
</defs>
</svg>
