<svg width="186" height="141" viewBox="0 0 186 141" fill="none" xmlns="http://www.w3.org/2000/svg">
<g clip-path="url(#clip0_196_96)">
<path fill-rule="evenodd" clip-rule="evenodd" d="M45.5061 36.2435C46.1536 36.4116 47.4486 37.6529 47.9925 38.1313L48.2644 38.3899C52.3566 42.825 54.338 48.8505 55.0243 54.8243C55.1538 55.9621 55.3351 57.3457 55.3351 58.587C55.3351 59.5179 55.2315 60.0481 55.2315 60.992C52.525 60.992 51.0357 60.7075 48.6788 60.1127C44.6255 59.1042 40.4168 57.1388 37.2699 54.4881L35.4569 52.8459C35.703 52.4839 35.8584 52.3029 36.1303 51.9537C37.1793 50.5702 38.7074 48.4755 39.588 47.0402C40.6628 45.2688 45.0658 38.0796 45.5061 36.2435ZM34.3044 51.2814C33.372 51.0357 30.9633 46.4455 30.9633 43.5491C30.9633 41.7906 31.0928 40.9242 31.6756 39.4631C32.1936 38.1701 33.3072 36.7478 34.4986 36.0107C35.8713 35.1444 37.6066 34.5755 39.4326 34.5755C40.7535 34.5755 42.955 34.9893 43.8226 35.403C43.7319 35.8039 43.5247 36.14 43.3176 36.4633C42.2298 38.2606 40.6369 41.3897 39.329 43.562C38.28 45.2947 36.8426 47.7643 35.6382 49.3677L34.3044 51.2814ZM57.2128 57.7594C57.1092 56.5052 56.9927 55.1604 56.8891 53.8933C56.5912 50.2469 55.7106 47.0144 54.325 43.7172C53.8977 42.6828 53.4444 41.8811 52.8876 40.976C51.994 39.4631 50.4271 37.3814 49.0155 36.2823C48.4975 35.8814 47.0212 34.7048 46.4385 34.5755C46.555 34.11 47.073 33.2049 47.3191 32.7265C47.6299 32.0799 47.9277 31.6145 48.2515 30.955C48.4198 30.6059 48.5364 30.3861 48.7047 30.037C50.8803 25.77 54.6876 18.8782 57.1481 15.1801L62.1079 9.06411L63.5972 7.73229L62.613 10.189C62.2892 11.1329 62.0302 11.9088 61.7453 12.8785C60.1525 18.4385 58.9481 25.033 58.456 30.7999C58.1452 34.5755 58.0546 40.5234 58.0546 44.493C58.0546 46.536 58.2229 49.6263 57.9769 51.4107C57.7567 53.014 58.0028 54.6303 57.4459 57.0483L57.2128 57.7594ZM44.8715 33.6316C41.3751 31.9506 37.257 32.0024 33.9159 33.9807C30.9504 35.7263 28.8654 39.1916 28.8654 42.825C28.8654 46.6523 29.8626 49.122 31.9087 52.0055C32.1288 52.3287 32.4396 52.652 32.6339 52.9494C32.5432 53.2856 32.1677 53.6735 31.9346 53.9191C31.6108 54.2424 31.4813 54.4751 31.1446 54.8113C30.536 55.4061 30.018 55.9233 29.4223 56.5311C28.8395 57.1 28.3086 57.6043 27.6611 58.1085C25.6409 59.6731 23.7502 61.0308 21.3286 62.0264C18.635 63.1255 13.6492 64.1082 10.8132 62.4143C10.3082 62.104 9.9844 61.9488 9.53116 61.5997C8.70236 60.9791 8.02896 60.2808 7.40737 59.4404C6.83757 58.6645 6.28072 57.656 5.94402 56.725C5.81452 56.363 5.47783 55.4449 5.43898 55.0441L6.77282 54.5915C8.05486 54.0872 9.31101 53.4795 10.4377 52.7166C11.2664 52.1606 11.6938 51.7081 12.3154 50.9452C15.1126 47.5575 11.7715 42.5405 7.88651 45.3722C7.60161 45.5791 7.32967 45.8636 7.00592 45.9541C6.90232 44.6482 5.51667 42.825 3.76843 42.825C1.29499 42.825 0 44.7516 0 47.1049C0 49.1479 1.42449 51.5658 2.35689 52.7813C3.08209 53.7252 3.05619 54.6691 3.39288 55.8328C4.22168 58.7551 5.63322 61.548 8.06781 63.3841C14.2449 68.026 23.2581 64.1211 28.3086 60.0222C28.6971 59.7119 28.9561 59.4791 29.3446 59.1688L31.3518 57.4103C32.2324 56.6733 33.372 55.057 34.0972 54.5139L36.0526 56.2207C38.1376 57.9017 40.4038 59.2464 42.942 60.3067C44.7291 61.0437 46.4773 61.6644 48.4069 62.1686C50.1422 62.6083 52.7192 63.0867 54.9077 63.0867C54.3509 65.4788 56.2157 65.4788 58.1582 65.4788C61.1237 65.4788 67.262 64.3409 68.8548 61.9488C69.1397 61.5221 69.3599 60.7592 69.8002 60.5006C70.3052 60.1903 70.8362 60.0093 71.3801 59.686C73.206 58.587 75.278 57.0353 76.56 55.3544L80.5745 50.3633C80.6652 50.234 80.7558 50.1306 80.8594 50.0271C80.9889 50.5961 81.1961 53.2985 81.4551 54.6432C81.8695 56.8155 82.4134 58.7163 83.5142 60.5265C83.9027 61.1859 84.1746 61.548 84.6926 62.0652C86.5963 63.953 89.7172 64.2116 92.0482 62.8669C93.0842 62.2592 94.1072 61.4833 94.8583 60.5653C95.8166 59.3498 96.1145 59.13 97.1764 57.5396C98.6008 55.4061 99.7016 53.014 100.725 50.6607L101.489 48.7988C101.528 48.7212 101.566 48.6048 101.605 48.5014C101.618 48.4626 101.657 48.3721 101.67 48.3462C101.761 48.1522 101.696 48.2686 101.774 48.1523C101.774 49.2772 101.618 50.4409 101.566 51.4883C101.502 52.7425 101.502 53.751 101.463 55.0441C101.45 55.6259 101.346 55.988 101.359 56.7121L101.256 60.1515C101.256 62.8281 101.178 66.1124 104.7 66.1124C106.487 66.1124 108.054 65.1297 109.077 64.3151C110.191 63.4487 111.214 62.1816 111.784 60.7592C111.926 60.4101 112.095 60.0351 112.134 59.6343C112.172 59.0654 112.146 58.6128 112.211 58.1473C112.354 57.0871 112.224 56.2337 112.38 55.1863C112.457 54.695 112.418 54.2295 112.496 53.7381L113.429 49.9625C114.788 45.786 117.508 38.752 120.681 35.4806C121.186 34.9505 121.626 34.0453 122.481 34.0453C124.164 34.0453 122.558 42.7215 122.493 43.0448C121.704 47.0273 120.538 52.1089 118.751 55.7035C118.531 56.1431 118.414 56.363 118.129 56.7509C117.288 57.9663 117.314 58.4835 119.139 58.6904C121.755 58.9749 124.734 58.3542 126.793 56.9319C128.541 55.7294 128.502 54.1648 129.279 52.2253C130.199 49.9496 130.937 47.6609 132.219 45.5403C134.641 41.519 139.056 38.0925 139.225 45.0102C139.238 45.7731 139.328 46.1868 139.328 46.8851C139.315 49.5229 139.328 52.1089 139.523 54.5269C139.626 55.7682 139.652 56.919 139.846 58.0697C140.339 60.9661 141.504 64.7547 145.078 64.7547C150.077 64.7547 153.185 49.5746 154.078 45.7472C154.765 46.7299 154.389 47.3118 156.189 48.8505C157.264 49.7556 159.194 50.1306 160.877 50.1306C162.315 50.1306 163.713 48.1522 164.322 47.0015L164.736 46.3679C164.736 53.3761 171.859 56.8026 177.246 53.5312C178.036 53.0657 178.606 52.3934 179.201 51.721C179.965 50.8805 180.548 49.9237 181.092 48.9151C182.102 47.079 182.827 45.1007 183.41 43.0836C183.501 42.7474 183.397 42.9026 183.565 42.7086C183.695 42.5793 184.524 42.2561 184.796 42.0621C186.777 40.6398 185.974 38.8554 184.822 38.8554C184.187 38.8554 184.057 39.2433 183.565 39.3726C183.384 37.1874 179.447 38.2347 181.649 41.7001C181.869 42.0492 182.115 42.1526 182.089 42.5793C182.024 43.562 180.639 46.7041 180.224 47.5187C179.201 49.5616 177.414 52.9494 174.682 52.9494C173.348 52.9494 172.532 51.7081 172.131 50.6866C171.056 47.9066 171.405 43.756 172.338 41.1053C172.778 39.864 174.254 37.8598 174.254 36.6573C174.254 35.041 171.923 34.6789 170.499 34.6789C169.567 34.6789 168.854 34.8858 168.129 35.1315C167.456 35.3513 166.769 35.7133 166.29 36.2306C165.811 36.7478 165.604 37.3167 165.41 38.1701C164.853 40.7303 164.529 45.3205 162.936 47.2859C160.929 49.7427 159.517 48.1005 159.517 45.1136C159.517 42.8638 159.984 40.0838 160.799 38.4675C161.02 38.0408 161.162 37.6917 161.408 37.3038C163.519 34.0453 165.578 35.4289 165.578 34.8858C165.578 34.1359 165.228 33.8126 164.827 33.4376C163.985 32.6618 162.599 32.7911 161.499 32.7911C157.173 32.7911 154.286 37.5365 153.755 41.3509C153.69 41.8164 153.69 42.0621 153.651 42.6052C153.573 43.7172 153.146 44.855 152.861 45.9929C152.149 48.8246 148.937 61.8325 146.749 61.8325C146.075 61.8325 145.829 58.2508 145.803 57.4491C145.739 54.7208 145.544 51.5529 145.208 48.9539C144.754 45.411 144.133 39.1657 140.481 39.1657C137.852 39.1657 136.363 39.6441 134.382 41.1182L133.125 42.1655C131.61 43.6784 130.613 45.605 129.901 47.6092L129.707 48.0359C129.732 46.717 130.121 45.3076 130.121 43.8594C130.121 41.3897 130.108 39.2174 129.474 36.89C128.684 33.9807 127.324 31.9506 124.138 32.3515C123.258 32.4679 122.817 32.5972 122.17 32.8946C119.424 34.1746 117.56 37.0064 116.057 39.5407C114.853 41.5837 113.856 43.7172 113.092 45.967L112.859 46.4713C112.859 44.9326 113.131 43.562 113.17 42.088C113.182 41.6871 113.247 41.0148 113.312 40.5493C113.778 36.9417 114.089 32.9333 114.931 29.4292C116.342 23.5977 107.342 25.951 104.907 29.3517C103.315 31.5757 103.146 34.6143 102.758 37.4331L102.408 40.5234C102.084 46.3162 99.0023 53.4149 95.8943 58.0439C95.208 59.0783 93.4986 61.4058 92.1518 61.4058C90.9863 61.4058 90.1316 59.5438 89.8985 58.4447C88.0855 50.0918 91.6079 31.705 93.641 23.6236C94.159 21.5677 94.7418 19.2919 95.4799 17.3265C96.2699 15.2189 96.8138 14.8698 95.2857 12.3225C95.0914 11.9993 94.8583 11.6631 94.6123 11.3269C92.9547 9.02531 89.0179 5.5988 87.0625 9.54252C85.4955 12.6846 84.7444 16.0464 83.8897 19.5247C82.4652 25.3433 81.5328 32.1446 81.0537 38.4287C81.0148 38.9718 80.9242 39.9027 80.8724 40.4329C80.7947 41.1053 80.8335 41.9069 80.7688 42.5276C80.6522 43.5491 80.9889 46.0963 80.6652 46.8075C80.458 47.2859 79.6551 48.204 79.3054 48.6824C77.9198 50.5702 76.573 52.471 75.019 54.2295C74.6823 54.6174 74.2938 54.9536 73.9312 55.3285L72.7787 56.3759C72.3902 56.7509 70.6678 58.0439 70.1887 58.1732C70.5642 57.3715 70.9009 51.9796 70.9268 50.5573C70.9268 49.859 70.888 49.1479 70.9139 48.4626C70.9398 47.8161 71.0175 47.273 71.0175 46.4713C71.0175 45.3076 70.9009 43.2905 71.0693 42.2431C71.2376 41.1311 71.1729 35.6746 71.393 34.2134L72.0535 26.4036C72.1959 25.1235 72.2995 23.8175 72.4549 22.6279C72.6233 21.3478 72.7657 20.1712 72.9082 18.917C73.0506 17.7274 73.2708 16.499 73.4909 15.3094C74.1125 11.87 74.8507 8.48224 76.1974 5.26261C77.3241 2.53433 78.0622 2.81879 79.681 2.48261C81.4681 2.12056 81.0925 0 78.2435 0C76.4176 0 74.6305 0.0775815 72.9082 0.51721C70.1757 1.22837 66.7699 2.66363 64.4778 4.3187C62.1079 6.03843 60.1784 8.18485 58.3395 10.4218C57.7049 11.1976 57.161 11.9346 56.5912 12.7363C54.8948 15.1284 53.3797 17.7144 51.8645 20.2358C50.8285 21.9556 49.935 23.7529 48.9896 25.5114C47.5522 28.1879 46.2831 30.955 44.8715 33.6316Z" fill="white"/>
<path fill-rule="evenodd" clip-rule="evenodd" d="M108.054 119.579C105.503 119.579 110.075 108.511 113.39 108.511C113.39 111.394 110.528 119.579 108.054 119.579ZM160.657 96.0848C160.385 96.0848 160.372 96.033 160.139 95.9813C160.256 95.5029 161.253 94.0806 161.577 93.6539C165.358 88.5723 165.72 96.0848 160.657 96.0848ZM130.017 94.6236C129.435 94.4685 126.547 90.6799 128.282 88.3913C129.396 86.9172 131.792 87.2922 131.792 89.3998C131.792 92.3996 130.38 93.2789 130.017 94.6236ZM85.1459 114.678H84.7186C81.8696 114.678 83.9416 103.313 84.084 102.446C84.4207 100.442 85.2495 97.3131 85.2495 95.4512C85.2495 92.516 75.9515 90.9773 74.3716 94.5202C73.8795 95.5934 72.9859 103.08 72.7399 104.8C72.2607 108.252 72.1183 113.76 74.4493 116.372C76.1198 118.247 78.4897 118.751 81.0667 118.751C84.4984 118.751 87.5935 115.635 89.4971 113.282C90.5849 111.95 91.4396 110.722 92.3461 109.222C93.0584 108.032 93.8742 106.545 94.4181 105.239L94.7677 104.645C94.7677 106.144 94.69 107.877 94.7677 109.351L94.8713 111.64C94.8713 112.558 94.9749 113.036 94.9749 113.941C94.9749 114.485 95.0397 114.588 95.0785 114.989C95.1562 116.023 95.1044 117.071 96.0886 117.639C98.4585 118.997 103.729 118.635 104.726 117.316C105.089 116.838 105.076 114.278 105.115 113.631C105.167 112.959 105.257 112.351 105.322 111.743C105.762 107.942 107.446 99.1492 110.774 96.9252C111.771 97.1838 112.483 98.6449 112.82 99.6794C113.571 101.916 113.597 103.739 113.597 106.106C113.597 106.584 113.442 106.61 113.092 106.752C107.99 108.782 103.017 120.471 108.287 121.118C109.88 121.325 111.266 121.208 112.522 120.704C117.301 118.79 119.321 111.886 119.929 107.321C120.059 106.3 119.981 106.688 121.16 106.041C121.509 105.847 121.626 105.782 121.937 105.563C122.468 105.149 122.766 104.942 123.245 104.464C123.478 104.231 123.633 104.076 123.866 103.843C124.099 103.61 124.268 103.339 124.475 103.183C124.475 104.541 124.125 105.938 124.061 107.256C123.827 111.782 123.361 117.575 126.042 121.57C127.298 123.445 128.748 124.648 130.976 125.204C134.913 126.173 137.282 124.79 139.924 122.165C141.349 120.756 142.488 119.062 143.68 117.446C144.508 116.308 145.311 114.95 145.985 113.696C146.865 112.067 150.336 105.511 150.724 103.817C150.737 103.83 150.763 103.843 150.763 103.882C150.841 104.334 151.773 105.899 152.007 106.183C153.716 108.2 156.513 109.662 159.517 109.662C162.211 109.662 163.7 109.299 165.992 107.981C166.666 107.593 167.391 107.127 168 106.649C168.958 105.873 169.735 104.981 170.577 104.102C171.418 103.209 172.105 102.227 172.752 101.153C172.921 100.869 173.167 100.248 173.348 100.08C174.06 99.4466 175.938 99.3561 175.938 97.4424C175.938 96.8089 175.303 96.1882 174.682 96.1882C174.255 96.1882 173.853 96.5373 173.529 96.7054C173.141 95.0503 170.913 95.2831 170.913 96.8088C170.913 97.7786 171.367 99.1234 172.066 99.6406C171.522 100.442 171.172 101.399 170.577 102.214L168.634 104.464C167.611 105.498 164.943 107.153 162.962 107.153C161.395 107.153 160.489 106.959 159.375 105.821C157.666 104.076 158.507 99.938 159.414 98.0631C161.421 98.0631 163.156 97.8691 164.425 97.1192C167.287 95.4512 167.417 91.8436 164.866 89.8007C163.907 89.0248 162.276 88.5594 160.553 88.5594C155.503 88.5594 151.89 93.2272 150.763 97.6881C150.232 99.8216 150.789 100.21 149.792 102.459L148.64 105.071C147.578 107.153 146.632 109.351 145.415 111.355L143.317 114.898C142.113 116.825 140.792 118.777 139.251 120.445C138.021 121.751 136.661 123.445 134.615 123.445C134.265 121.945 133.462 121.363 133.462 118.014C133.462 112.144 134.239 108.304 135.288 102.912C135.897 99.7957 135.832 101.231 133.501 98.451L132.348 97.2097C131.934 96.8088 131.468 96.4339 131.17 95.9813C131.325 95.4124 131.766 94.8822 132.038 94.3392C133.449 91.5204 134.679 87.5379 131.416 85.288C129.409 83.8915 126.094 84.0338 123.827 84.7966C123.296 84.9647 122.83 85.1458 122.338 85.3914C118.868 87.1629 116.951 91.1583 118 95.0245C118.505 96.8218 120.823 99.7957 122.442 101.037C122.869 101.373 123.102 101.748 123.53 102.033C122.701 103.287 121.496 104.27 120.188 104.968C120.188 102.304 119.904 99.938 118.375 97.8821C116.951 95.9684 114.918 94.8305 112.444 94.8305C108.715 94.8305 106.539 100.261 105.723 103.158L104.597 107.05C104.597 105.886 104.48 103.869 104.649 102.808C104.739 102.162 104.7 101.386 104.7 100.675C104.7 99.3173 104.895 97.9079 104.908 96.4985L105.05 94.4426C105.218 93.2013 105.192 91.7143 105.361 90.3696C105.516 89.1541 105.62 87.7965 105.762 86.4905C105.905 85.2492 106.099 83.8786 106.28 82.6114L107.2 76.9609C107.29 76.4049 107.523 75.5774 107.523 75.086C107.523 72.4224 99.5592 69.8622 98.5491 72.9138C97.0599 77.4523 96.1663 83.5036 95.7001 88.3395L95.2857 93.4728C95.2469 93.9383 95.2339 94.6883 95.1692 95.2314C94.8843 97.7269 95.2339 99.3302 94.3533 101.735C93.3692 104.451 89.0309 114.678 85.1459 114.678Z" fill="white"/>
<path fill-rule="evenodd" clip-rule="evenodd" d="M65.5784 124.596C69.8648 122.333 77.9197 120.613 82.8406 120.626C83.4234 120.626 83.5658 120.562 84.0061 120.523L87.8393 120.743C90.3905 121.001 94.0553 121.816 96.0884 123.174C98.1604 124.57 98.3158 125.411 98.3158 127.311C98.3158 129.005 96.3215 131.514 95.156 132.509L92.7085 134.242C91.5948 134.901 91.3747 135.108 89.9631 135.677C83.8507 138.186 78.1916 135.936 73.2836 132.264C71.5224 130.958 69.8777 129.277 68.3237 127.699L65.5784 124.596ZM28.9689 112.894C28.9689 111.187 30.3675 109.972 31.5848 109.455C33.2812 108.743 35.0812 109.468 36.3633 110.114C37.0755 110.463 37.6065 110.838 38.2281 111.291C39.3029 112.067 42.5922 114.756 43.0973 115.506C41.3879 118.726 38.4353 118.933 35.0553 118.105C34.5762 117.989 34.11 117.846 33.6179 117.665C31.533 116.864 28.9689 115.493 28.9689 112.894ZM33.0481 86.7879C33.0481 90.7963 39.7044 91.3394 42.4886 89.736C46.4772 87.4344 43.2268 83.0123 40.2612 84.3829C39.031 84.9648 38.4094 86.6069 38.7461 87.8999C38.9403 88.637 39.1087 88.6111 39.4324 89.0895H37.7619C33.9028 88.8438 33.6697 86.3612 35.7805 83.5683C36.4798 82.6503 37.1273 82.0425 37.9432 81.2279C38.6813 80.478 39.6137 79.8832 40.4684 79.2496C40.9217 78.9134 41.3749 78.6677 41.8541 78.3445C44.8196 76.4308 49.7406 74.5301 53.004 73.7155C54.1306 73.431 55.6199 72.9267 56.7983 72.9008C56.0472 74.0128 55.2314 75.0214 54.5968 76.2369C53.25 78.8488 52.2788 81.6158 51.5406 84.4734C50.414 88.8568 49.624 94.2875 49.0801 98.8131C48.7305 101.697 48.342 104.399 47.552 107.114C47.4096 107.567 47.2801 107.748 47.1765 108.2C46.9175 108.084 46.5808 107.981 46.3088 107.903C45.2729 107.631 44.5218 107.269 43.4469 107.011C41.4526 106.507 40.0152 106.313 37.8655 106.313C35.4438 106.313 32.7114 107.075 31.1315 107.955C30.2639 108.446 29.448 109.093 28.7876 109.791C26.3918 112.338 27.8681 115.855 30.3934 117.536C30.9761 117.911 31.3905 118.131 31.9992 118.441C33.1258 118.984 34.3043 119.32 35.7028 119.644C38.4223 120.264 41.0253 120.342 43.7318 119.799C44.5477 119.644 46.5937 118.868 46.7491 118.855C46.8657 119.256 47.1894 119.437 47.4614 119.708L52.3176 124.88C53.3148 125.954 54.7134 127.195 55.6199 128.281C55.9307 128.669 56.0472 128.811 56.4098 129.16L61.2142 134.281C61.4214 134.513 61.8099 134.914 62.056 135.108C62.2761 135.289 62.302 135.289 62.5222 135.483C66.4201 139.091 72.6749 140.888 78.0362 140.888C80.7168 140.888 83.6694 140.216 85.6767 139.543C87.9818 138.78 89.8854 137.811 91.8279 136.712C92.7473 136.181 93.7186 135.574 94.5733 134.953C95.0006 134.643 95.415 134.345 95.8294 134.009C96.6582 133.337 97.3705 132.561 98.0439 131.733C98.7691 130.841 99.3389 129.923 99.7274 128.811C100.219 127.402 100.181 125.98 99.5072 124.661C98.5489 122.773 96.5158 121.713 94.5603 120.937C86.3501 117.691 73.5685 119.139 65.7597 122.889C65.3841 123.07 65.151 123.251 64.7496 123.342C64.5035 122.993 64.4647 122.902 64.1409 122.592L62.8848 121.131C62.0301 120.07 59.1034 117.135 58.0803 116.114C57.2645 115.286 54.3767 112.765 53.4443 112.273C55.0501 109.881 55.9566 107.929 56.889 105.162C58.4429 100.533 59.2847 95.5417 60.1135 90.7317C60.9941 85.6501 62.3409 79.0427 65.1769 74.6982C65.8633 73.6508 66.705 72.6035 67.741 71.9181C68.5439 71.3751 69.2691 69.7717 66.1093 69.7717C64.4129 69.7717 62.3668 70.1984 60.7092 70.5346C53.4184 72.0216 46.2052 73.9353 40.0022 78.06C39.3288 78.4996 38.772 78.9134 38.1763 79.366L36.9331 80.4392C36.7388 80.5943 36.687 80.6073 36.4798 80.8142C35.0294 82.1977 33.0481 84.5122 33.0481 86.7879Z" fill="white"/>
<path fill-rule="evenodd" clip-rule="evenodd" d="M76.5601 79.5858C76.5601 81.6029 77.2335 83.4261 78.0882 84.8484C78.5802 85.663 78.8263 85.9604 79.4738 86.6069C79.7846 86.9172 79.9659 87.0724 80.3155 87.331C80.458 87.4344 81.2479 87.9387 81.3774 87.9387C85.1718 87.9387 89.9891 83.0511 90.1057 79.7668C90.2352 76.198 86.7128 75.461 84.5113 78.3315L83.1516 79.9995C83.0609 78.8617 81.8566 75.9265 79.9141 75.9265C78.8263 75.9265 78.0234 76.1593 77.363 77.142C76.8968 77.8014 76.5601 78.4996 76.5601 79.5858Z" fill="white"/>
</g>
<defs>
<clipPath id="clip0_196_96">
<rect width="186" height="140.888" fill="white"/>
</clipPath>
</defs>
</svg>
